<svg id="kity_svg_6" xmlns="http://www.w3.org/2000/svg" xmlns:xlink="http://www.w3.org/1999/xlink" version="1.1" width="1381" height="389" style="font-family: Arial, &quot;Microsoft Yahei&quot;,  &quot;Heiti SC&quot;; background: #fbfbfb" viewBox="30 53 1381 389"><defs id="kity_defs_7"><linearGradient id="kity_linearGradient_17" x1="0" y1="0" x2="0" y2="1"><stop id="kity_stop_18" offset="0" stop-color="rgb(255, 255, 255)"></stop><stop id="kity_stop_19" offset="1" stop-color="rgb(204, 204, 204)"></stop></linearGradient><marker id="kity_marker_2" orient="auto" refX="6" refY="0" viewBox="-7 -7 14 14" markerWidth="7" markerHeight="7" markerUnits="userSpaceOnUse"><path id="kity_path_3" fill="rgb(115, 161, 191)" stroke="none" d="M6,0A6,6,0,1,1,-6,0A6,6,0,1,1,6,0"></path></marker></defs><g id="kity_g_8" transform="translate(0.5, 0.5)"><g id="minder1" text-rendering="optimize-speed" transform="translate( 682 93 ) matrix( 1 0 0 1 0 0 )"><g id="minder_connect_group1"><path id="kity_path_31" fill="none" stroke="rgb(115, 161, 191)" stroke-width="1" d="M38,20v30h-640V70" transform="translate( 0 0 )"></path><path id="kity_path_33" fill="none" stroke="rgb(115, 161, 191)" stroke-width="1" d="M-612 96V144.5L-592 144.5" transform="translate( 0 0 )"></path><path id="kity_path_35" fill="none" stroke="rgb(115, 161, 191)" stroke-width="1" d="M-612 96V201.5L-592 201.5" transform="translate( 0 0 )"></path><path id="kity_path_37" fill="none" stroke="rgb(115, 161, 191)" stroke-width="1" d="M-612 96V258.5L-592 258.5" transform="translate( 0 0 )"></path><path id="kity_path_39" fill="none" stroke="rgb(115, 161, 191)" stroke-width="1" d="M-612 96V315.5L-592 315.5" transform="translate( 0 0 )"></path><path id="kity_path_41" fill="none" stroke="rgb(115, 161, 191)" stroke-width="1" d="M38,20v30h-446V70" transform="translate( 0 0 )"></path><path id="kity_path_43" fill="none" stroke="rgb(115, 161, 191)" stroke-width="1" d="M-413 96V144.5L-393 144.5" transform="translate( 0 0 )"></path><path id="kity_path_45" fill="none" stroke="rgb(115, 161, 191)" stroke-width="1" d="M-413 96V201.5L-393 201.5" transform="translate( 0 0 )"></path><path id="kity_path_47" fill="none" stroke="rgb(115, 161, 191)" stroke-width="1" d="M-413 96V258.5L-393 258.5" transform="translate( 0 0 )"></path><path id="kity_path_49" fill="none" stroke="rgb(115, 161, 191)" stroke-width="1" d="M-413 96V315.5L-393 315.5" transform="translate( 0 0 )"></path><path id="kity_path_51" fill="none" stroke="rgb(115, 161, 191)" stroke-width="1" d="M38,20v30h-250.5V70" transform="translate( 0 0 )"></path><path id="kity_path_53" fill="none" stroke="rgb(115, 161, 191)" stroke-width="1" d="M-225 96V142L-205 142" transform="translate( 0 0 )"></path><path id="kity_path_55" fill="none" stroke="rgb(115, 161, 191)" stroke-width="1" d="M-225 96V194L-205 194" transform="translate( 0 0 )"></path><path id="kity_path_57" fill="none" stroke="rgb(115, 161, 191)" stroke-width="1" d="M-225 96V246L-205 246" transform="translate( 0 0 )"></path><path id="kity_path_59" fill="none" stroke="rgb(115, 161, 191)" stroke-width="1" d="M38,20v30h-57V70" transform="translate( 0 0 )"></path><path id="kity_path_61" fill="none" stroke="rgb(115, 161, 191)" stroke-width="1" d="M-43 96V144.5L-23 144.5" transform="translate( 0 0 )"></path><path id="kity_path_63" fill="none" stroke="rgb(115, 161, 191)" stroke-width="1" d="M38,20v30h373V70" transform="translate( 0 0 )"></path><path id="kity_path_65" fill="none" stroke="rgb(115, 161, 191)" stroke-width="1" d="M38,20v30h523V70" transform="translate( 0 0 )"></path><path id="kity_path_67" fill="none" stroke="rgb(115, 161, 191)" stroke-width="1" d="M38,20v30h644.5V70" transform="translate( 0 0 )"></path></g><g id="minder_node1" transform="matrix( 1 0 0 1 0 0 )"><path id="node_outline1" fill="rgb(115, 161, 191)" stroke="rgb(115, 161, 191)" d="M-19,-20h114a5,5,0,0,1,5,5v30a5,5,0,0,1,-5,5h-114a5,5,0,0,1,-5,-5v-30a5,5,0,0,1,5,-5z" stroke-width="3"></path><g id="node_text1" transform="translate( 0 -2.4 )" fill="white"><text id="kity_text_22" text-rendering="inherit" dominant-baseline="text-before-edge" font-size="16" dy="0" y="-8">fe-pro-dir</text></g></g><g id="kity_g_12"><path id="kity_path_13" fill="none" stroke="none" d="M0,0h0v0h0z"></path></g><g id="kity_g_14"><path id="kity_path_15" fill="none" stroke="none" d="M0,0h0v0h0z"></path><path id="kity_path_16" fill="none" stroke="none"></path></g><g id="minder_node2" transform="matrix( 1 0 0 1 -612 83 )"><g id="node_expander5" transform="translate( 10 -20 )" style="cursor: pointer;"><path id="kity_path_165" fill="white" stroke="gray" d="M6,0A6,6,0,1,1,-6,0A6,6,0,1,1,6,0"></path><path id="kity_path_166" fill="none" stroke="gray" d="M-4.5,0L4.5,0"></path></g><path id="node_outline6" fill="rgb(238, 243, 246)" stroke="rgb(115, 161, 191)" d="M-17,-13h54a3,3,0,0,1,3,3v20a3,3,0,0,1,-3,3h-54a3,3,0,0,1,-3,-3v-20a3,3,0,0,1,3,-3z" stroke-width="1"></path><g id="node_text6" transform="translate( 0 -2.1 )" fill="black"><text id="kity_text_77" text-rendering="inherit" dominant-baseline="text-before-edge" font-size="14" dy="0" y="-7">css</text></g></g><g id="minder_node3" transform="matrix( 1 0 0 1 -582 144 )"><g id="node_expander1" display="none" transform="translate( -16 0.5 )" style="cursor: pointer;"><path id="kity_path_153" fill="white" stroke="gray" d="M6,0A6,6,0,1,1,-6,0A6,6,0,1,1,6,0"></path><path id="kity_path_154" fill="none" stroke="gray"></path></g><path id="node_outline2" fill="transparent" stroke="none" d="M-5,-13h108a5,5,0,0,1,5,5v17a5,5,0,0,1,-5,5h-108a5,5,0,0,1,-5,-5v-17a5,5,0,0,1,5,-5z"></path><g id="node_text2" transform="translate( 0 -1.7999999999999998 )" fill="black"><text id="kity_text_69" text-rendering="inherit" dominant-baseline="text-before-edge" font-size="12" dy="0" y="-6">normalize.css</text></g><g id="kity_g_106" transform="translate( 82 0 )" style="cursor: pointer;"><path id="kity_path_107" fill="transparent" stroke="none" d="M2.5,-8.5h12a2,2,0,0,1,2,2v13a2,2,0,0,1,-2,2h-12a2,2,0,0,1,-2,-2v-13a2,2,0,0,1,2,-2z"></path><path id="kity_path_108" fill="black" stroke="none" d="M9,9H3V8h6L9,9L9,9z M9,7H3V6h6V7z M9,5H3V4h6V5z M8.5,11H2V2h8v7.5 M9,12l2-2V1H1v11" transform="translate( 2.5 -6.5 )"></path></g></g><g id="minder_node4" transform="matrix( 1 0 0 1 -582 201 )"><g id="node_expander2" display="none" transform="translate( -16 0.5 )" style="cursor: pointer;"><path id="kity_path_156" fill="white" stroke="gray" d="M6,0A6,6,0,1,1,-6,0A6,6,0,1,1,6,0"></path><path id="kity_path_157" fill="none" stroke="gray"></path></g><path id="node_outline3" fill="transparent" stroke="none" d="M-5,-13h78a5,5,0,0,1,5,5v17a5,5,0,0,1,-5,5h-78a5,5,0,0,1,-5,-5v-17a5,5,0,0,1,5,-5z"></path><g id="node_text3" transform="translate( 0 -1.7999999999999998 )" fill="black"><text id="kity_text_71" text-rendering="inherit" dominant-baseline="text-before-edge" font-size="12" dy="0" y="-6">base.css</text></g><g id="kity_g_109" transform="translate( 52 0 )" style="cursor: pointer;"><path id="kity_path_110" fill="transparent" stroke="none" d="M2.5,-8.5h12a2,2,0,0,1,2,2v13a2,2,0,0,1,-2,2h-12a2,2,0,0,1,-2,-2v-13a2,2,0,0,1,2,-2z"></path><path id="kity_path_111" fill="black" stroke="none" d="M9,9H3V8h6L9,9L9,9z M9,7H3V6h6V7z M9,5H3V4h6V5z M8.5,11H2V2h8v7.5 M9,12l2-2V1H1v11" transform="translate( 2.5 -6.5 )"></path></g></g><g id="minder_node5" transform="matrix( 1 0 0 1 -582 258 )"><g id="node_expander3" display="none" transform="translate( -16 0.5 )" style="cursor: pointer;"><path id="kity_path_159" fill="white" stroke="gray" d="M6,0A6,6,0,1,1,-6,0A6,6,0,1,1,6,0"></path><path id="kity_path_160" fill="none" stroke="gray"></path></g><path id="node_outline4" fill="transparent" stroke="none" d="M-5,-13h102a5,5,0,0,1,5,5v17a5,5,0,0,1,-5,5h-102a5,5,0,0,1,-5,-5v-17a5,5,0,0,1,5,-5z"></path><g id="node_text4" transform="translate( 0 -1.7999999999999998 )" fill="black"><text id="kity_text_73" text-rendering="inherit" dominant-baseline="text-before-edge" font-size="12" dy="0" y="-6">common.css</text></g><g id="kity_g_112" transform="translate( 76 0 )" style="cursor: pointer;"><path id="kity_path_113" fill="transparent" stroke="none" d="M2.5,-8.5h12a2,2,0,0,1,2,2v13a2,2,0,0,1,-2,2h-12a2,2,0,0,1,-2,-2v-13a2,2,0,0,1,2,-2z"></path><path id="kity_path_114" fill="black" stroke="none" d="M9,9H3V8h6L9,9L9,9z M9,7H3V6h6V7z M9,5H3V4h6V5z M8.5,11H2V2h8v7.5 M9,12l2-2V1H1v11" transform="translate( 2.5 -6.5 )"></path></g></g><g id="minder_node6" transform="matrix( 1 0 0 1 -582 315 )"><g id="node_expander4" display="none" transform="translate( -16 0.5 )" style="cursor: pointer;"><path id="kity_path_162" fill="white" stroke="gray" d="M6,0A6,6,0,1,1,-6,0A6,6,0,1,1,6,0"></path><path id="kity_path_163" fill="none" stroke="gray"></path></g><path id="node_outline5" fill="transparent" stroke="none" d="M-5,-13h109a5,5,0,0,1,5,5v17a5,5,0,0,1,-5,5h-109a5,5,0,0,1,-5,-5v-17a5,5,0,0,1,5,-5z"></path><g id="node_text5" transform="translate( 0 -1.7999999999999998 )" fill="black"><text id="kity_text_75" text-rendering="inherit" dominant-baseline="text-before-edge" font-size="12" dy="0" y="-6">page-业务.css</text></g><g id="kity_g_115" transform="translate( 83 0 )" style="cursor: pointer;"><path id="kity_path_116" fill="transparent" stroke="none" d="M2.5,-8.5h12a2,2,0,0,1,2,2v13a2,2,0,0,1,-2,2h-12a2,2,0,0,1,-2,-2v-13a2,2,0,0,1,2,-2z"></path><path id="kity_path_117" fill="black" stroke="none" d="M9,9H3V8h6L9,9L9,9z M9,7H3V6h6V7z M9,5H3V4h6V5z M8.5,11H2V2h8v7.5 M9,12l2-2V1H1v11" transform="translate( 2.5 -6.5 )"></path></g></g><g id="minder_node7" transform="matrix( 1 0 0 1 -413 83 )"><g id="node_expander10" transform="translate( 5 -20 )" style="cursor: pointer;"><path id="kity_path_180" fill="white" stroke="gray" d="M6,0A6,6,0,1,1,-6,0A6,6,0,1,1,6,0"></path><path id="kity_path_181" fill="none" stroke="gray" d="M-4.5,0L4.5,0"></path></g><path id="node_outline11" fill="rgb(238, 243, 246)" stroke="rgb(115, 161, 191)" d="M-17,-13h44a3,3,0,0,1,3,3v20a3,3,0,0,1,-3,3h-44a3,3,0,0,1,-3,-3v-20a3,3,0,0,1,3,-3z" stroke-width="1"></path><g id="node_text11" transform="translate( 0 -2.1 )" fill="black"><text id="kity_text_87" text-rendering="inherit" dominant-baseline="text-before-edge" font-size="14" dy="0" y="-7">js</text></g></g><g id="minder_node8" transform="matrix( 1 0 0 1 -383 144 )"><g id="node_expander6" display="none" transform="translate( -16 0.5 )" style="cursor: pointer;"><path id="kity_path_168" fill="white" stroke="gray" d="M6,0A6,6,0,1,1,-6,0A6,6,0,1,1,6,0"></path><path id="kity_path_169" fill="none" stroke="gray"></path></g><path id="node_outline7" fill="transparent" stroke="none" d="M-5,-13h79a5,5,0,0,1,5,5v17a5,5,0,0,1,-5,5h-79a5,5,0,0,1,-5,-5v-17a5,5,0,0,1,5,-5z"></path><g id="node_text7" transform="translate( 0 -1.7999999999999998 )" fill="black"><text id="kity_text_79" text-rendering="inherit" dominant-baseline="text-before-edge" font-size="12" dy="0" y="-6">jquery.js</text></g><g id="kity_g_118" transform="translate( 53 0 )" style="cursor: pointer;"><path id="kity_path_119" fill="transparent" stroke="none" d="M2.5,-8.5h12a2,2,0,0,1,2,2v13a2,2,0,0,1,-2,2h-12a2,2,0,0,1,-2,-2v-13a2,2,0,0,1,2,-2z"></path><path id="kity_path_120" fill="black" stroke="none" d="M9,9H3V8h6L9,9L9,9z M9,7H3V6h6V7z M9,5H3V4h6V5z M8.5,11H2V2h8v7.5 M9,12l2-2V1H1v11" transform="translate( 2.5 -6.5 )"></path></g></g><g id="minder_node9" transform="matrix( 1 0 0 1 -383 201 )"><g id="node_expander7" display="none" transform="translate( -16 0.5 )" style="cursor: pointer;"><path id="kity_path_171" fill="white" stroke="gray" d="M6,0A6,6,0,1,1,-6,0A6,6,0,1,1,6,0"></path><path id="kity_path_172" fill="none" stroke="gray"></path></g><path id="node_outline8" fill="transparent" stroke="none" d="M-5,-13h73a5,5,0,0,1,5,5v17a5,5,0,0,1,-5,5h-73a5,5,0,0,1,-5,-5v-17a5,5,0,0,1,5,-5z"></path><g id="node_text8" transform="translate( 0 -1.7999999999999998 )" fill="black"><text id="kity_text_81" text-rendering="inherit" dominant-baseline="text-before-edge" font-size="12" dy="0" y="-6">json2.js</text></g><g id="kity_g_121" transform="translate( 47 0 )" style="cursor: pointer;"><path id="kity_path_122" fill="transparent" stroke="none" d="M2.5,-8.5h12a2,2,0,0,1,2,2v13a2,2,0,0,1,-2,2h-12a2,2,0,0,1,-2,-2v-13a2,2,0,0,1,2,-2z"></path><path id="kity_path_123" fill="black" stroke="none" d="M9,9H3V8h6L9,9L9,9z M9,7H3V6h6V7z M9,5H3V4h6V5z M8.5,11H2V2h8v7.5 M9,12l2-2V1H1v11" transform="translate( 2.5 -6.5 )"></path></g></g><g id="minder_node10" transform="matrix( 1 0 0 1 -383 258 )"><g id="node_expander8" display="none" transform="translate( -16 0.5 )" style="cursor: pointer;"><path id="kity_path_174" fill="white" stroke="gray" d="M6,0A6,6,0,1,1,-6,0A6,6,0,1,1,6,0"></path><path id="kity_path_175" fill="none" stroke="gray"></path></g><path id="node_outline9" fill="transparent" stroke="none" d="M-5,-13h98a5,5,0,0,1,5,5v17a5,5,0,0,1,-5,5h-98a5,5,0,0,1,-5,-5v-17a5,5,0,0,1,5,-5z"></path><g id="node_text9" transform="translate( 0 -1.7999999999999998 )" fill="black"><text id="kity_text_83" text-rendering="inherit" dominant-baseline="text-before-edge" font-size="12" dy="0" y="-6">html5shiv.js</text></g><g id="kity_g_124" transform="translate( 72 0 )" style="cursor: pointer;"><path id="kity_path_125" fill="transparent" stroke="none" d="M2.5,-8.5h12a2,2,0,0,1,2,2v13a2,2,0,0,1,-2,2h-12a2,2,0,0,1,-2,-2v-13a2,2,0,0,1,2,-2z"></path><path id="kity_path_126" fill="black" stroke="none" d="M9,9H3V8h6L9,9L9,9z M9,7H3V6h6V7z M9,5H3V4h6V5z M8.5,11H2V2h8v7.5 M9,12l2-2V1H1v11" transform="translate( 2.5 -6.5 )"></path></g></g><g id="minder_node11" transform="matrix( 1 0 0 1 -383 315 )"><g id="node_expander9" display="none" transform="translate( -16 0.5 )" style="cursor: pointer;"><path id="kity_path_177" fill="white" stroke="gray" d="M6,0A6,6,0,1,1,-6,0A6,6,0,1,1,6,0"></path><path id="kity_path_178" fill="none" stroke="gray"></path></g><path id="node_outline10" fill="transparent" stroke="none" d="M-5,-13h67a5,5,0,0,1,5,5v17a5,5,0,0,1,-5,5h-67a5,5,0,0,1,-5,-5v-17a5,5,0,0,1,5,-5z"></path><g id="node_text10" transform="translate( 0 -1.7999999999999998 )" fill="black"><text id="kity_text_85" text-rendering="inherit" dominant-baseline="text-before-edge" font-size="12" dy="0" y="-6">业务.js</text></g><g id="kity_g_127" transform="translate( 41 0 )" style="cursor: pointer;"><path id="kity_path_128" fill="transparent" stroke="none" d="M2.5,-8.5h12a2,2,0,0,1,2,2v13a2,2,0,0,1,-2,2h-12a2,2,0,0,1,-2,-2v-13a2,2,0,0,1,2,-2z"></path><path id="kity_path_129" fill="black" stroke="none" d="M9,9H3V8h6L9,9L9,9z M9,7H3V6h6V7z M9,5H3V4h6V5z M8.5,11H2V2h8v7.5 M9,12l2-2V1H1v11" transform="translate( 2.5 -6.5 )"></path></g></g><g id="minder_node12" transform="matrix( 1 0 0 1 -225 83 )"><g id="node_expander14" transform="translate( 12.5 -20 )" style="cursor: pointer;"><path id="kity_path_192" fill="white" stroke="gray" d="M6,0A6,6,0,1,1,-6,0A6,6,0,1,1,6,0"></path><path id="kity_path_193" fill="none" stroke="gray" d="M-4.5,0L4.5,0"></path></g><path id="node_outline15" fill="rgb(238, 243, 246)" stroke="rgb(115, 161, 191)" d="M-17,-13h59a3,3,0,0,1,3,3v20a3,3,0,0,1,-3,3h-59a3,3,0,0,1,-3,-3v-20a3,3,0,0,1,3,-3z" stroke-width="1"></path><g id="node_text15" transform="translate( 0 -2.1 )" fill="black"><text id="kity_text_95" text-rendering="inherit" dominant-baseline="text-before-edge" font-size="14" dy="0" y="-7">less</text></g></g><g id="minder_node13" transform="matrix( 1 0 0 1 -195 142 )"><g id="node_expander11" display="none" transform="translate( -16 0 )" style="cursor: pointer;"><path id="kity_path_183" fill="white" stroke="gray" d="M6,0A6,6,0,1,1,-6,0A6,6,0,1,1,6,0"></path><path id="kity_path_184" fill="none" stroke="gray"></path></g><path id="node_outline12" fill="transparent" stroke="none" d="M-5,-11h61a5,5,0,0,1,5,5v12a5,5,0,0,1,-5,5h-61a5,5,0,0,1,-5,-5v-12a5,5,0,0,1,5,-5z"></path><g id="node_text12" transform="translate( 0 -1.7999999999999998 )" fill="black"><text id="kity_text_89" text-rendering="inherit" dominant-baseline="text-before-edge" font-size="12" dy="0" y="-6">base.less</text></g></g><g id="minder_node14" transform="matrix( 1 0 0 1 -195 194 )"><g id="node_expander12" display="none" transform="translate( -16 0 )" style="cursor: pointer;"><path id="kity_path_186" fill="white" stroke="gray" d="M6,0A6,6,0,1,1,-6,0A6,6,0,1,1,6,0"></path><path id="kity_path_187" fill="none" stroke="gray"></path></g><path id="node_outline13" fill="transparent" stroke="none" d="M-5,-11h85a5,5,0,0,1,5,5v12a5,5,0,0,1,-5,5h-85a5,5,0,0,1,-5,-5v-12a5,5,0,0,1,5,-5z"></path><g id="node_text13" transform="translate( 0 -1.7999999999999998 )" fill="black"><text id="kity_text_91" text-rendering="inherit" dominant-baseline="text-before-edge" font-size="12" dy="0" y="-6">common.less</text></g></g><g id="minder_node15" transform="matrix( 1 0 0 1 -195 246 )"><g id="node_expander13" display="none" transform="translate( -16 0 )" style="cursor: pointer;"><path id="kity_path_189" fill="white" stroke="gray" d="M6,0A6,6,0,1,1,-6,0A6,6,0,1,1,6,0"></path><path id="kity_path_190" fill="none" stroke="gray"></path></g><path id="node_outline14" fill="transparent" stroke="none" d="M-5,-11h92a5,5,0,0,1,5,5v12a5,5,0,0,1,-5,5h-92a5,5,0,0,1,-5,-5v-12a5,5,0,0,1,5,-5z"></path><g id="node_text14" transform="translate( 0 -1.7999999999999998 )" fill="black"><text id="kity_text_93" text-rendering="inherit" dominant-baseline="text-before-edge" font-size="12" dy="0" y="-6">page-业务.less</text></g></g><g id="minder_node16" transform="matrix( 1 0 0 1 -43 83 )"><g id="node_expander16" transform="translate( 24 -20 )" style="cursor: pointer;"><path id="kity_path_198" fill="white" stroke="gray" d="M6,0A6,6,0,1,1,-6,0A6,6,0,1,1,6,0"></path><path id="kity_path_199" fill="none" stroke="gray" d="M-4.5,0L4.5,0"></path></g><path id="node_outline17" fill="rgb(238, 243, 246)" stroke="rgb(115, 161, 191)" d="M-17,-13h82a3,3,0,0,1,3,3v20a3,3,0,0,1,-3,3h-82a3,3,0,0,1,-3,-3v-20a3,3,0,0,1,3,-3z" stroke-width="1"></path><g id="node_text17" transform="translate( 0 -2.1 )" fill="black"><text id="kity_text_99" text-rendering="inherit" dominant-baseline="text-before-edge" font-size="14" dy="0" y="-7">images</text></g></g><g id="minder_node17" transform="matrix( 1 0 0 1 -13 144 )"><g id="node_expander15" display="none" transform="translate( -16 0.5 )" style="cursor: pointer;"><path id="kity_path_195" fill="white" stroke="gray" d="M6,0A6,6,0,1,1,-6,0A6,6,0,1,1,6,0"></path><path id="kity_path_196" fill="none" stroke="gray"></path></g><path id="node_outline16" fill="transparent" stroke="none" d="M-5,-13h329a5,5,0,0,1,5,5v17a5,5,0,0,1,-5,5h-329a5,5,0,0,1,-5,-5v-17a5,5,0,0,1,5,-5z"></path><g id="node_text16" transform="translate( 0 -1.7999999999999998 )" fill="black"><text id="kity_text_97" text-rendering="inherit" dominant-baseline="text-before-edge" font-size="12" dy="0" y="-6">如果兼容IE7+，使用sprite图标（合并图标，节约带宽）</text></g><g id="kity_g_130" transform="translate( 303 0 )" style="cursor: pointer;"><path id="kity_path_131" fill="transparent" stroke="none" d="M2.5,-8.5h12a2,2,0,0,1,2,2v13a2,2,0,0,1,-2,2h-12a2,2,0,0,1,-2,-2v-13a2,2,0,0,1,2,-2z"></path><path id="kity_path_132" fill="black" stroke="none" d="M9,9H3V8h6L9,9L9,9z M9,7H3V6h6V7z M9,5H3V4h6V5z M8.5,11H2V2h8v7.5 M9,12l2-2V1H1v11" transform="translate( 2.5 -6.5 )"></path></g></g><g id="minder_node18" transform="matrix( 1 0 0 1 376 83 )"><g id="node_expander17" display="none" transform="translate( 35 -20 )" style="cursor: pointer;"><path id="kity_path_201" fill="white" stroke="gray" d="M6,0A6,6,0,1,1,-6,0A6,6,0,1,1,6,0"></path><path id="kity_path_202" fill="none" stroke="gray"></path></g><path id="node_outline18" fill="rgb(238, 243, 246)" stroke="rgb(115, 161, 191)" d="M-17,-13h104a3,3,0,0,1,3,3v20a3,3,0,0,1,-3,3h-104a3,3,0,0,1,-3,-3v-20a3,3,0,0,1,3,-3z" stroke-width="1"></path><g id="node_text18" transform="translate( 0 -2.1 )" fill="black"><text id="kity_text_101" text-rendering="inherit" dominant-baseline="text-before-edge" font-size="14" dy="0" y="-7">业务1.html</text></g></g><g id="minder_node19" transform="matrix( 1 0 0 1 526 83 )"><g id="node_expander18" display="none" transform="translate( 35 -20 )" style="cursor: pointer;"><path id="kity_path_204" fill="white" stroke="gray" d="M6,0A6,6,0,1,1,-6,0A6,6,0,1,1,6,0"></path><path id="kity_path_205" fill="none" stroke="gray"></path></g><path id="node_outline19" fill="rgb(238, 243, 246)" stroke="rgb(115, 161, 191)" d="M-17,-13h104a3,3,0,0,1,3,3v20a3,3,0,0,1,-3,3h-104a3,3,0,0,1,-3,-3v-20a3,3,0,0,1,3,-3z" stroke-width="1"></path><g id="node_text19" transform="translate( 0 -2.1 )" fill="black"><text id="kity_text_103" text-rendering="inherit" dominant-baseline="text-before-edge" font-size="14" dy="0" y="-7">业务2.html</text></g></g><g id="minder_node20" transform="matrix( 1 0 0 1 676 83 )"><g id="node_expander19" display="none" transform="translate( 6.5 -20 )" style="cursor: pointer;"><path id="kity_path_207" fill="white" stroke="gray" d="M6,0A6,6,0,1,1,-6,0A6,6,0,1,1,6,0"></path><path id="kity_path_208" fill="none" stroke="gray"></path></g><path id="node_outline20" fill="rgb(238, 243, 246)" stroke="rgb(115, 161, 191)" d="M-17,-13h47a3,3,0,0,1,3,3v20a3,3,0,0,1,-3,3h-47a3,3,0,0,1,-3,-3v-20a3,3,0,0,1,3,-3z" stroke-width="1"></path><g id="node_text20" transform="translate( 0 -2.1 )" fill="black"><text id="kity_text_105" text-rendering="inherit" dominant-baseline="text-before-edge" font-size="14" dy="0" y="-7">....</text></g></g></g></g></svg>